<svg width="18" height="20" viewBox="0 0 18 20" fill="none" xmlns="http://www.w3.org/2000/svg">
<path fill-rule="evenodd" clip-rule="evenodd" d="M10.1072 1.5947C10.8128 0.733128 12.0235 0.0714951 13.0594 0C13.233 1.17785 12.7533 2.33147 12.1194 3.147C11.4418 4.02311 10.2724 4.7005 9.14058 4.66536C8.93414 3.53719 9.4636 2.3763 10.1072 1.5947ZM13.2975 4.66667C14.6762 4.66667 16.136 5.41237 17.1747 6.69733C13.7693 8.55033 14.321 13.3774 17.7619 14.6698C17.2888 15.7108 17.0618 16.175 16.4518 17.0971C15.6007 18.3833 14.4022 19.9861 12.9145 19.9974C12.303 20.0037 11.9018 19.8211 11.4691 19.6243C10.9678 19.3961 10.4242 19.1487 9.46219 19.1541C8.50545 19.1587 7.9532 19.4031 7.44496 19.6279C7.0012 19.8242 6.59099 20.0057 5.97437 19.9999C4.48793 19.9874 3.35154 18.541 2.50051 17.2548C0.122454 13.6601 -0.128669 9.43991 1.33875 7.1953C2.38256 5.6013 4.02881 4.66917 5.57486 4.66917C6.39886 4.66917 7.06296 4.90407 7.69582 5.12791C8.27181 5.33165 8.82193 5.52623 9.44316 5.52623C10.018 5.52623 10.4906 5.34859 11.0062 5.15482C11.6246 4.92235 12.3049 4.66667 13.2975 4.66667Z" fill="#495567"/>
</svg>
