<svg width="18" height="20" viewBox="0 0 18 20" fill="none" xmlns="http://www.w3.org/2000/svg">
<path fill-rule="evenodd" clip-rule="evenodd" d="M1.82307 0.169351C2.34075 -0.0802404 2.93433 -0.053431 3.43238 0.24638L13.3409 6.01642L10.5029 8.86765L1.82307 0.169351ZM0.857178 1.72958C0.857178 1.46413 0.916083 1.20623 1.02559 0.974385L9.7035 9.6708L1.0271 18.3884C0.91646 18.1614 0.857178 17.9073 0.857178 17.6407V1.72958ZM10.504 10.4728L1.83821 19.1798C2.06817 19.2863 2.31285 19.3327 2.55715 19.3327C2.85885 19.3327 3.1598 19.2606 3.43242 19.0967L13.3428 13.318L10.504 10.4728ZM17.104 8.20761C17.1074 8.2095 17.1112 8.21177 17.1146 8.21403C17.6263 8.52442 17.9317 9.0674 17.9317 9.66627C17.9317 10.2651 17.6263 10.8081 17.1146 11.1189L14.3548 12.7278L11.303 9.66967L14.3529 6.60547L17.104 8.20761Z" fill="#495567"/>
</svg>
